<svg width="38" height="38" viewBox="0 0 38 38" fill="none" xmlns="http://www.w3.org/2000/svg">
<path fill-rule="evenodd" clip-rule="evenodd" d="M0 11.5736C0 5.18168 5.18168 0 11.5736 0H26.4264C32.8183 0 38 5.18168 38 11.5736V20.0609C38 26.4528 32.8183 31.6345 26.4264 31.6345H24.6761C24.0624 32.5267 23.5346 33.353 23.0608 34.0947C21.5322 36.4879 20.5663 38 19.0964 38C17.4132 38 16.1706 36.0171 14.2792 32.9987C14.0071 32.5644 13.7215 32.1088 13.4193 31.6345H11.5736C5.18168 31.6345 0 26.4528 0 20.0609V11.5736ZM17.7365 17.3893C17.4086 17.7173 17.2447 18.132 17.2447 18.6335V20.8325C17.2447 21.334 17.4086 21.7584 17.7365 22.1056C18.0645 22.4335 18.4792 22.5975 18.9807 22.5975C19.4822 22.5975 19.897 22.4335 20.2249 22.1056C20.5528 21.7584 20.7168 21.334 20.7168 20.8325V19.7619C20.7168 19.7234 20.7264 19.6944 20.7457 19.6751L20.8614 19.6173C21.6909 19.4822 22.4528 19.2604 23.1472 18.9518C23.8609 18.6239 24.4782 18.1995 24.999 17.6787C25.5391 17.1386 25.9538 16.502 26.2431 15.769C26.5325 15.0168 26.6772 14.1584 26.6772 13.1939C26.6772 11.9015 26.3589 10.7442 25.7223 9.72183C25.0858 8.69949 24.2274 7.88934 23.1472 7.29137C22.0863 6.67411 20.8904 6.36548 19.5594 6.36548C18.4985 6.36548 17.4954 6.56802 16.5503 6.9731C15.6244 7.35888 14.8142 7.90863 14.1198 8.62233C13.7147 9.02741 13.5315 9.47106 13.5701 9.9533C13.6086 10.4355 13.8594 10.8503 14.3223 11.1975C14.766 11.5254 15.2 11.6315 15.6244 11.5157C16.068 11.3807 16.4442 11.1782 16.7528 10.9081C17.1386 10.5802 17.5629 10.3198 18.0259 10.1269C18.5081 9.93401 19.0193 9.83756 19.5594 9.83756C20.2538 9.83756 20.8711 9.98223 21.4112 10.2716C21.9706 10.5609 22.4046 10.9563 22.7132 11.4579C23.0411 11.9594 23.2051 12.5381 23.2051 13.1939C23.2051 14.0812 23.0122 14.7949 22.6264 15.335C22.2599 15.8751 21.7584 16.2706 21.1218 16.5213C20.4853 16.7528 19.7716 16.8685 18.9807 16.8685C18.4792 16.8685 18.0645 17.0421 17.7365 17.3893ZM17.534 27.3426C17.8426 27.632 18.2766 27.7766 18.836 27.7766H19.2122C19.7716 27.7766 20.1959 27.632 20.4853 27.3426C20.7939 27.034 20.9482 26.6 20.9482 26.0406V25.5487C20.9482 24.9893 20.7939 24.565 20.4853 24.2756C20.1959 23.967 19.7716 23.8127 19.2122 23.8127H18.836C18.2766 23.8127 17.8426 23.967 17.534 24.2756C17.2447 24.565 17.1 24.9893 17.1 25.5487V26.0406C17.1 26.6 17.2447 27.034 17.534 27.3426Z" fill="#E84855"/>
</svg>
