<svg width="39" height="39" viewBox="0 0 39 39" fill="none" xmlns="http://www.w3.org/2000/svg">
<path fill-rule="evenodd" clip-rule="evenodd" d="M14.5683 29.8919L15.1405 30.7899C15.4485 31.2733 15.7391 31.7371 16.012 32.1726L16.0135 32.175C16.9965 33.7436 17.6964 34.8504 18.3371 35.5889C18.6449 35.9436 18.8694 36.1287 19.0214 36.2212C19.1468 36.2976 19.1983 36.2974 19.2149 36.2973L19.2162 36.2973C19.2171 36.2973 19.218 36.2973 19.2189 36.2973C19.2314 36.2975 19.248 36.2977 19.3016 36.2679C19.3809 36.2236 19.5285 36.1169 19.7531 35.8701C20.2364 35.3391 20.7658 34.5222 21.5697 33.2637L21.575 33.2553C22.0494 32.5127 22.5953 31.658 23.2316 30.733L23.81 29.8919H26.5921C31.9522 29.8919 36.2973 25.5468 36.2973 20.1867V11.6462C36.2973 6.28618 31.9522 1.94103 26.5921 1.94103H11.6462C6.28618 1.94103 1.94103 6.28618 1.94103 11.6462V20.1867C1.94103 25.5468 6.28618 29.8919 11.6462 29.8919H14.5683ZM0 11.6462C0 5.21418 5.21418 0 11.6462 0H26.5921C33.0242 0 38.2383 5.21418 38.2383 11.6462V20.1867C38.2383 26.6188 33.0242 31.8329 26.5921 31.8329H24.8308C24.2133 32.7307 23.6822 33.5622 23.2055 34.3086C21.6672 36.7168 20.6953 38.2383 19.2162 38.2383C17.5224 38.2383 16.272 36.243 14.3687 33.2056C14.0949 32.7687 13.8076 32.3102 13.5035 31.8329H11.6462C5.21418 31.8329 0 26.6188 0 20.1867V11.6462Z" fill="#9CA1AB"/>
<path d="M18.2263 18.3425C18.2263 18.0125 18.3331 17.7408 18.5466 17.5273C18.7795 17.2943 19.061 17.1779 19.3909 17.1779C20.245 17.1391 21.0117 16.9547 21.6911 16.6247C22.3704 16.2753 22.9042 15.79 23.2924 15.1689C23.7 14.5284 23.9038 13.7714 23.9038 12.8979C23.9038 12.0827 23.7194 11.3645 23.3506 10.7434C23.0013 10.1222 22.516 9.63697 21.8949 9.28758C21.2932 8.9382 20.6138 8.7635 19.8568 8.7635C19.1386 8.7635 18.469 8.91879 17.8478 9.22935C17.2267 9.53992 16.6929 9.94753 16.2465 10.4522C16.033 10.6657 15.7806 10.8113 15.4895 10.8889C15.2177 10.9666 14.9363 10.9083 14.6451 10.7142C14.3151 10.4813 14.1307 10.2096 14.0919 9.89901C14.0725 9.56903 14.189 9.26817 14.4413 8.99643C15.0819 8.22001 15.8777 7.60859 16.8288 7.16215C17.7799 6.6963 18.7892 6.46338 19.8568 6.46338C21.0408 6.46338 22.1181 6.73512 23.0886 7.27861C24.0591 7.8221 24.8355 8.5791 25.4178 9.54962C26.0002 10.5007 26.2913 11.6168 26.2913 12.8979C26.2913 13.752 26.136 14.5381 25.8255 15.2563C25.5343 15.9744 25.117 16.615 24.5735 17.1779C24.03 17.7214 23.3992 18.1581 22.681 18.4881C21.9628 18.8181 21.1864 19.0219 20.3518 19.0995C20.2935 19.0995 20.2935 19.0995 20.3518 19.0995C20.41 19.0801 20.4682 19.051 20.5264 19.0122V21.3996C20.5264 21.7296 20.4197 22.0111 20.2062 22.244C19.9927 22.4769 19.7209 22.5934 19.3909 22.5934C19.0416 22.5934 18.7601 22.4769 18.5466 22.244C18.3331 22.0111 18.2263 21.7296 18.2263 21.3996V18.3425ZM19.3327 27.9506C18.9251 27.9506 18.6145 27.8341 18.401 27.6012C18.1875 27.3489 18.0807 27.0189 18.0807 26.6113V26.029C18.0807 25.6214 18.1875 25.3011 18.401 25.0682C18.6145 24.8353 18.9251 24.7188 19.3327 24.7188H19.5948C20.0024 24.7188 20.3129 24.8353 20.5264 25.0682C20.74 25.3011 20.8467 25.6214 20.8467 26.029V26.6113C20.8467 27.0189 20.74 27.3489 20.5264 27.6012C20.3129 27.8341 20.0024 27.9506 19.5948 27.9506H19.3327Z" fill="#9CA1AB"/>
</svg>
