<svg width="60" height="61" viewBox="0 0 60 61" fill="none" xmlns="http://www.w3.org/2000/svg">
<path fill-rule="evenodd" clip-rule="evenodd" d="M32.1265 1.45451C33.8723 0.365295 36.2349 -0.349212 39.0463 0.17639C41.8638 0.703141 43.6292 2.1749 44.6204 3.89165C45.3233 5.10914 45.6196 6.41797 45.6623 7.54466C46.7284 7.59731 48.0625 7.75062 49.3595 8.17227C51.1642 8.75899 53.036 9.91597 53.9 12.1733C55.2098 15.5954 54.1899 18.2952 53.3973 19.9033C54.8934 20.5423 56.4221 21.5172 57.6366 22.9461C59.1894 24.7732 60.1713 27.2779 59.9751 30.5794C59.633 36.3386 56.4134 39.6523 53.3415 41.3367C54.0163 42.9045 54.6425 45.4601 53.9358 48.158C53.3359 50.4482 51.8213 51.8184 50.0556 52.5651C48.6951 53.1406 47.1782 53.3534 45.7693 53.3798C45.7055 54.4485 45.4411 55.7731 44.7314 57.0285C43.7005 58.8519 41.7962 60.4076 38.5604 60.8628C35.4647 61.2983 33.1509 60.6781 31.5346 59.2718C30.7252 58.5675 30.1357 57.7047 29.7145 56.7677C29.1643 57.79 28.57 58.6312 27.7935 59.2594C26.3819 60.4015 24.5415 60.7257 21.8613 60.7257C19.3545 60.7257 17.4813 59.442 16.3082 57.7763C15.4066 56.496 14.8913 54.9574 14.7927 53.5157C12.1955 53.5094 8.76823 53.265 6.61163 49.7736C4.59471 46.5083 5.26374 42.9561 6.11033 40.9124C3.07061 39.1336 0.163558 35.8988 0.00692226 30.5472C-0.0889518 27.2716 0.819116 24.7897 2.23089 22.9695C3.33583 21.5449 4.71617 20.5676 6.07626 19.9244C5.07707 17.4637 5.00081 14.5965 6.22643 12.2143C7.56071 9.62096 10.3109 7.83429 14.5063 7.6726C14.7659 4.22562 17.4995 0.774672 21.5612 0.170001C23.8935 -0.177208 25.6989 0.0778755 27.2034 0.986079C28.2258 1.60334 29.0386 2.48236 29.7659 3.51712C30.3571 2.79321 31.157 2.05945 32.1265 1.45451ZM28.7194 5.78512C27.8464 4.33681 27.0659 3.37956 26.1229 2.81027C25.1641 2.23143 23.8931 1.97128 21.8683 2.27271C18.4739 2.77804 16.3674 5.94722 16.6103 8.63231C16.6376 8.9345 16.5357 9.23407 16.3302 9.45552C16.1247 9.67697 15.8353 9.79918 15.5348 9.79134C11.3193 9.68131 9.08064 11.2777 8.09469 13.1941C7.18971 14.953 7.22004 17.202 8.05643 19.1977C8.78493 19.0025 9.47412 18.894 10.0764 18.8561C10.6566 18.8197 11.1563 19.265 11.1924 19.8508C11.2285 20.4366 10.7873 20.941 10.2071 20.9775C9.55948 21.0182 8.73307 21.1704 7.85506 21.4831C6.45649 21.9813 4.98598 22.8649 3.88843 24.2799C2.94049 25.5021 2.22988 27.1722 2.12004 29.4531H13.015C13.061 28.3811 13.3092 27.1311 13.852 26.0169C14.6368 24.4061 16.1086 22.9759 18.4919 22.9759C19.7997 22.9759 20.8722 23.2927 21.7218 23.8744C22.5686 24.454 23.1176 25.2441 23.4686 26.0646C23.9515 27.1935 24.0843 28.4412 24.1032 29.4531H28.7194V18.8863C28.7194 18.5914 28.8408 18.3097 29.0546 18.1087C29.2684 17.9077 29.5553 17.8054 29.8467 17.8263C31.8896 17.9729 33.3219 17.8624 34.22 17.4224C34.6344 17.2194 34.9198 16.9527 35.1141 16.5989C35.3155 16.2322 35.4581 15.6996 35.4581 14.9117C35.4581 14.1149 35.3215 13.5903 35.1302 13.2346C34.9475 12.895 34.6773 12.6381 34.2691 12.435C33.3679 11.9865 31.9281 11.8526 29.772 11.8526C29.1907 11.8526 28.7194 11.3768 28.7194 10.7899V5.78512ZM28.7194 31.5785H23.0332C22.7455 31.5785 22.4704 31.4596 22.2717 31.2495C22.0731 31.0394 21.9683 30.7563 21.9818 30.4662C22.03 29.4249 22.0123 28.0212 21.5358 26.9073C21.3069 26.3723 20.9861 25.9387 20.5404 25.6336C20.0975 25.3304 19.4548 25.1013 18.4919 25.1013C17.1249 25.1013 16.2772 25.8547 15.7411 26.955C15.1813 28.1042 15.0409 29.5137 15.1426 30.3925C15.1775 30.6938 15.0831 30.9957 14.8834 31.2223C14.6837 31.4489 14.3975 31.5785 14.0971 31.5785H2.1915C2.69426 35.7902 5.3251 38.2098 7.96397 39.5013C9.10691 40.0606 10.0614 40.0572 11.2743 40.0528C11.3829 40.0524 11.4936 40.052 11.6067 40.052C12.188 40.052 12.6593 40.5278 12.6593 41.1148C12.6593 41.7017 12.188 42.1775 11.6067 42.1775C11.4923 42.1775 11.3757 42.1783 11.2569 42.1791C10.3123 42.1856 9.22575 42.1931 8.0192 41.8064C7.36506 43.422 6.88064 46.1923 8.39801 48.6489C10.0933 51.3934 12.7553 51.3904 15.5695 51.3873C15.6645 51.3872 15.7597 51.3871 15.855 51.3871C16.1525 51.3871 16.4361 51.5142 16.6357 51.7369C16.8352 51.9596 16.9321 52.2572 16.9024 52.556C16.7824 53.7617 17.1547 55.3102 18.024 56.5447C18.8726 57.7495 20.149 58.6003 21.8613 58.6003C24.4549 58.6003 25.6596 58.2621 26.477 57.6009C27.3274 56.9128 27.9297 55.759 28.9079 53.5486V51.4054C27.5882 51.4649 26.2703 51.3015 25.1746 50.7349C24.4411 50.3555 23.8089 49.7952 23.3676 49.0196C22.9293 48.2491 22.7131 47.3258 22.7131 46.2671C22.7131 44.1258 23.5589 42.596 25.0408 41.7472C26.108 41.136 27.4019 40.939 28.7194 40.9867V31.5785ZM31.0131 53.6956V50.2417C31.0131 49.9349 30.8818 49.6431 30.653 49.4413C30.4241 49.2395 30.12 49.1474 29.8189 49.1886C28.2907 49.398 26.9983 49.2899 26.1344 48.8431C25.7221 48.63 25.4099 48.342 25.1932 47.9611C24.9737 47.5751 24.8183 47.0337 24.8183 46.2671C24.8183 44.7575 25.3643 44.0056 26.0797 43.5958C26.8878 43.133 28.1173 42.991 29.6305 43.1983C29.9316 43.2396 30.2356 43.1474 30.4645 42.9456C30.6933 42.7438 30.8247 42.452 30.8247 42.1452V31.5785H36.1865C36.2081 32.6118 36.3229 33.8878 36.7535 35.0331C37.061 35.8512 37.549 36.6586 38.3272 37.2596C39.1162 37.8692 40.1217 38.2029 41.3451 38.2029C42.5058 38.2029 43.4886 37.9735 44.2933 37.4988C45.1067 37.0189 45.6607 36.3338 46.0297 35.5574C46.5877 34.3835 46.7403 32.9501 46.7797 31.5785H57.76C57.0873 36.2392 54.1039 38.7251 51.4909 39.8884C51.1462 40.0418 50.7834 40.0946 50.3662 40.0992C50.154 40.1015 49.94 40.0916 49.7031 40.0791C49.6837 40.0781 49.664 40.077 49.6441 40.076C49.4325 40.0647 49.1945 40.052 48.9628 40.052C48.3814 40.052 47.9101 40.5278 47.9101 41.1148C47.9101 41.7017 48.3814 42.1775 48.9628 42.1775C49.1365 42.1775 49.3201 42.1872 49.5451 42.1991L49.5935 42.2016C49.8297 42.2141 50.1034 42.2276 50.3892 42.2245C50.6987 42.2211 51.0355 42.1983 51.3887 42.1303C51.9193 43.3372 52.4691 45.444 51.9005 47.6147C51.4978 49.1519 50.522 50.0635 49.2422 50.6048C47.9212 51.1635 46.2964 51.3111 44.762 51.241C44.4614 51.2272 44.1694 51.344 43.9597 51.5618C43.75 51.7796 43.6426 52.0776 43.6646 52.3805C43.7285 53.2576 43.6258 54.6963 42.9029 55.9749C42.2125 57.1963 40.8939 58.3885 38.2699 58.7577C35.5936 59.1342 33.9448 58.563 32.909 57.6618C31.862 56.7507 31.2643 55.3499 31.0131 53.6956ZM57.8907 29.4531H45.7399C45.1585 29.4531 44.6873 29.9289 44.6873 30.5158C44.6873 32.2385 44.599 33.6546 44.1316 34.6379C43.9147 35.0944 43.6264 35.4305 43.2311 35.6637C42.8272 35.902 42.2353 36.0774 41.3451 36.0774C40.5175 36.0774 39.9787 35.8591 39.6065 35.5716C39.2233 35.2756 38.9331 34.841 38.7218 34.2789C38.2845 33.1158 38.2709 31.6546 38.2956 30.5395C38.3019 30.2536 38.1938 29.9772 37.9958 29.7728C37.7978 29.5683 37.5265 29.4531 37.2432 29.4531H30.8247V20.005C32.4558 20.0527 33.9607 19.9118 35.1391 19.3346C35.8967 18.9634 36.5269 18.4094 36.9552 17.6297C37.3764 16.8629 37.5634 15.9492 37.5634 14.9117C37.5634 13.8832 37.3887 12.9798 36.9803 12.2204C36.5633 11.445 35.9453 10.8995 35.1999 10.5286C34.0332 9.94795 32.5061 9.77911 30.8247 9.73845V5.71796C31.1403 5.08246 31.9521 4.06192 33.2333 3.26256C34.5981 2.41107 36.435 1.84976 38.663 2.2663C40.8849 2.68169 42.1226 3.78609 42.8015 4.96197C43.5046 6.17974 43.644 7.54112 43.5246 8.44066C43.4843 8.7444 43.5759 9.05093 43.7757 9.28156C43.9756 9.51219 44.2644 9.64448 44.5679 9.64448C45.6372 9.64448 47.2381 9.71552 48.7142 10.1954C50.1818 10.6725 51.3864 11.5028 51.9362 12.9394C52.9976 15.7123 52.1128 17.7645 51.3745 19.2199C50.5836 19.0188 49.8354 18.9029 49.1829 18.8567C48.6029 18.8157 48.0999 19.257 48.0592 19.8425C48.0186 20.428 48.4557 20.9359 49.0357 20.9769C49.7508 21.0275 50.6466 21.186 51.594 21.4929C53.1785 22.0062 54.8313 22.9094 56.0389 24.3302C57.0774 25.5521 57.8293 27.2048 57.8907 29.4531Z" fill="#9CA1AB"/>
</svg>
