<svg width="61" height="61" viewBox="0 0 61 61" fill="none" xmlns="http://www.w3.org/2000/svg">
<path d="M41.5489 37.025C37.3806 37.025 37.331 32.5666 37.3806 30.3374H29.7883V42.0778C26.5132 41.632 23.6847 42.5534 23.6847 46.2389C23.6847 49.9245 26.7047 50.6973 29.9799 50.2515V53.8182C30.5178 57.5059 32.706 60.7311 38.5715 59.9113C44.5263 59.0791 45.1217 54.3631 44.9729 52.3321C48.248 52.4807 52.2907 51.7376 53.3095 47.8737C54.1246 44.7825 52.9699 41.8573 52.2907 40.781C55.4148 39.3994 59.0574 36.2853 59.4131 30.3374H46.015C46.015 33.7555 45.7172 37.025 41.5489 37.025Z" fill="#FFAE42"/>
<path d="M0.610091 30.3374H13.8594C13.6112 28.2073 14.5144 23.7985 18.3254 23.7985C22.9403 23.7985 23.0396 28.2073 22.9403 30.3374H29.7883V18.597C33.9566 18.8943 36.6362 18.2701 36.6362 14.5845C36.6362 10.8989 34.1055 10.4233 29.7883 10.4233V5.07331C27.8531 1.80384 26.0282 0.108708 21.6005 0.763531C17.5811 1.35798 15.0503 5.07331 15.348 8.34277C6.17774 8.10499 4.48064 15.3276 7.16027 20.2069C4.02925 21.3149 0.428834 24.1853 0.610091 30.3374Z" fill="#FFAE42"/>
<path d="M37.3806 30.3374C37.331 32.5666 37.3806 37.025 41.5489 37.025C45.7172 37.025 46.015 33.7555 46.015 30.3374H59.4131C59.7795 24.211 55.7663 21.3254 52.2907 20.2069C52.9699 18.8281 54.7982 16.0706 53.3095 12.2067C51.8727 8.4775 47.057 8.19415 44.824 8.19415C45.1217 5.96497 44.1392 1.71465 39.0181 0.763523C33.8971 -0.187607 30.483 3.33949 29.7883 5.07331V10.4233C34.1055 10.4233 36.6362 10.8989 36.6362 14.5845C36.6362 18.2701 33.9566 18.8943 29.7883 18.597V30.3374H37.3806Z" fill="#E84855"/>
<path d="M13.8594 30.3374H0.610091C0.770604 35.7855 4.00486 38.8399 7.16027 40.374C6.26705 41.8831 5.01654 45.7634 7.16027 49.2112C9.30401 52.659 12.8173 52.4807 15.6458 52.4807C15.348 55.4529 17.462 59.7627 21.7494 59.7627C27.1087 59.7627 27.9384 58.4252 29.9799 53.8182V50.2515C26.7047 50.6973 23.6847 49.9245 23.6847 46.2389C23.6847 42.5534 26.5132 41.632 29.7883 42.0778V30.3374H22.9403C23.0396 28.2073 22.9403 23.7985 18.3254 23.7985C14.5144 23.7985 13.6112 28.2073 13.8594 30.3374Z" fill="#E84855"/>
<path fill-rule="evenodd" clip-rule="evenodd" d="M32.4253 1.39865C34.1151 0.351303 36.4 -0.336492 39.1282 0.170227C41.8601 0.677605 43.537 2.08279 44.4747 3.69635C45.2405 5.01394 45.5005 6.44684 45.4735 7.59929C46.5929 7.63007 48.1006 7.75939 49.5507 8.22774C51.3105 8.7961 53.0644 9.89235 53.8725 11.9897C55.2625 15.5975 53.9431 18.3427 53.146 19.8676C54.7626 20.4824 56.4479 21.4786 57.7511 23.0019C59.2477 24.7512 60.2076 27.159 60.0154 30.3734C59.6651 36.2298 56.2552 39.481 53.1292 41.0522C53.8382 42.4916 54.6426 45.1841 53.8929 48.0275C53.3273 50.1727 51.908 51.455 50.221 52.1638C48.7681 52.7743 47.1116 52.9648 45.5948 52.9523C45.5841 54.036 45.3645 55.5007 44.5854 56.8696C43.6136 58.5774 41.8083 60.0682 38.655 60.5089C35.6015 60.9356 33.397 60.3202 31.8831 59.0115C30.8559 58.1236 30.1937 56.9567 29.7884 55.691C29.096 57.1337 28.4284 58.2315 27.4867 58.9883C26.1838 60.0356 24.4539 60.3661 21.7493 60.3661C19.3771 60.3661 17.6057 59.1649 16.4858 57.5852C15.5244 56.2291 15.0234 54.5705 15.0148 53.086C12.3239 53.095 8.82152 53.0259 6.64773 49.5298C4.57113 46.1899 5.45241 42.5108 6.34252 40.6323C3.22678 38.9451 0.166287 35.7673 0.00683281 30.3552C-0.0876063 27.1498 0.805263 24.7538 2.16735 23.0092C3.34945 21.4952 4.86168 20.501 6.32184 19.8848C5.17962 17.4172 5.03372 14.4742 6.27451 12.0784C7.57891 9.55971 10.3392 7.78487 14.7213 7.73472C14.7639 4.33677 17.4361 0.769406 21.5121 0.166582C23.8144 -0.173913 25.5311 0.0847676 26.9393 0.929297C28.0703 1.60757 28.9462 2.63221 29.7614 3.88352C30.3347 3.05101 31.2437 2.13106 32.4253 1.39865ZM29.1848 5.23941C28.2601 3.6977 27.4022 2.61415 26.3186 1.96427C25.2236 1.30757 23.8141 1.0461 21.6887 1.36043C17.9921 1.90714 15.6796 5.33117 15.9489 8.28802C15.9645 8.45958 15.906 8.62965 15.7882 8.75535C15.6704 8.88106 15.5045 8.95042 15.3323 8.94595C10.918 8.83149 8.45035 10.5013 7.34615 12.6334C6.29162 14.6696 6.40585 17.2636 7.46158 19.4729C8.31301 19.2147 9.11924 19.0777 9.80226 19.0351C10.1349 19.0143 10.4213 19.2671 10.4421 19.5997C10.4628 19.9323 10.21 20.2188 9.87741 20.2395C9.17545 20.2833 8.29336 20.4459 7.36147 20.7757C5.87758 21.3008 4.30101 22.2375 3.11859 23.7519C2.02241 25.1559 1.23826 27.09 1.20774 29.734H13.2184C13.2043 28.6266 13.4295 27.2245 14.0283 26.0034C14.7703 24.4905 16.1275 23.195 18.3253 23.195C19.5783 23.195 20.5732 23.4957 21.3466 24.0216C22.1182 24.5464 22.6254 25.2654 22.9548 26.0305C23.4878 27.2683 23.5758 28.6762 23.5624 29.734H29.1848V18.597C29.1848 18.4295 29.2544 18.2696 29.377 18.1554C29.4996 18.0413 29.6641 17.9832 29.8311 17.9951C31.9106 18.1434 33.4775 18.0448 34.5112 17.5417C35.0081 17.2999 35.3747 16.9674 35.6242 16.5161C35.8779 16.0574 36.0327 15.4352 36.0327 14.5845C36.0327 13.7286 35.8854 13.1151 35.6426 12.6667C35.4048 12.2275 35.0531 11.9046 34.5637 11.6627C33.5363 11.1548 31.9651 11.0267 29.7882 11.0267C29.455 11.0267 29.1848 10.7566 29.1848 10.4233V5.23941ZM29.1848 30.9408H22.9402C22.7753 30.9408 22.6176 30.8733 22.5037 30.754C22.3899 30.6347 22.3298 30.474 22.3375 30.3093C22.3867 29.252 22.3767 27.7393 21.8464 26.5078C21.5865 25.9044 21.2098 25.388 20.6679 25.0196C20.1279 24.6523 19.3798 24.4018 18.3253 24.4018C16.7121 24.4018 15.7122 25.3108 15.1119 26.5348C14.4981 27.7863 14.3462 29.3023 14.4586 30.2676C14.4785 30.4386 14.4244 30.61 14.3099 30.7386C14.1954 30.8672 14.0314 30.9408 13.8593 30.9408H1.24605C1.61387 35.716 4.53296 38.4257 7.42401 39.8313C8.68592 40.4448 9.75808 40.4402 10.9828 40.435C11.0966 40.4345 11.2118 40.4341 11.3285 40.4341C11.6617 40.4341 11.9319 40.7042 11.9319 41.0375C11.9319 41.3707 11.6617 41.6409 11.3285 41.6409C11.2114 41.6409 11.0931 41.6416 10.9736 41.6423C9.90393 41.6489 8.73715 41.656 7.43154 41.1502C6.65142 42.7889 5.88782 46.022 7.67261 48.8925C9.53518 51.8881 12.4943 51.8828 15.3 51.8776C15.4155 51.8774 15.5308 51.8772 15.6457 51.8772C15.8162 51.8772 15.9787 51.9494 16.0931 52.0758C16.2075 52.2022 16.2631 52.3711 16.2461 52.5408C16.1123 53.8762 16.524 55.5523 17.4703 56.8873C18.4048 58.2055 19.8341 59.1592 21.7493 59.1592C24.4039 59.1592 25.7686 58.821 26.7307 58.0477C27.7103 57.2603 28.369 55.9577 29.3763 53.6903V50.9254C27.9173 51.0496 26.4752 50.9204 25.3283 50.3312C24.6538 49.9847 24.0824 49.479 23.684 48.7833C23.2872 48.0904 23.0812 47.2429 23.0812 46.2389C23.0812 44.2176 23.8735 42.845 25.2098 42.0846C26.3198 41.453 27.7284 41.289 29.1848 41.4055V30.9408ZM30.5832 50.2514V53.7738C30.8447 55.5213 31.4851 57.0723 32.6723 58.0985C33.8534 59.1194 35.6759 59.7067 38.4879 59.3137C41.2893 58.9221 42.7591 57.6388 43.5365 56.2728C44.3325 54.874 44.4401 53.3187 44.371 52.3761C44.3584 52.2041 44.42 52.035 44.5402 51.9113C44.6604 51.7877 44.8279 51.7214 45.0001 51.7292C46.5934 51.8015 48.3219 51.6527 49.7535 51.0512C51.1613 50.4597 52.2728 49.4385 52.7259 47.7198C53.3964 45.177 52.6301 42.7344 52.0144 41.5199C51.5666 41.6461 51.1339 41.684 50.7344 41.6884C50.4603 41.6914 50.1953 41.6785 49.9551 41.6659L49.9022 41.6631C49.6776 41.6513 49.4791 41.6409 49.29 41.6409C48.9567 41.6409 48.6866 41.3707 48.6866 41.0375C48.6866 40.7042 48.9567 40.4341 49.29 40.4341C49.5126 40.4341 49.7424 40.4462 49.9596 40.4576C49.9792 40.4587 49.9987 40.4597 50.0181 40.4607C50.2587 40.4733 50.4894 40.4842 50.7212 40.4816C51.1808 40.4766 51.6182 40.4186 52.0466 40.2292C54.9081 38.9637 58.2082 36.1903 58.7582 30.9408H46.6146C46.5944 32.4506 46.4741 34.001 45.8893 35.2234C45.5482 35.9363 45.0442 36.5511 44.3103 36.9813C43.5812 37.4086 42.6687 37.6284 41.5488 37.6284C40.3929 37.6284 39.4742 37.3167 38.7647 36.7722C38.0615 36.2326 37.6096 35.4998 37.3186 34.7307C36.842 33.4714 36.7666 32.0286 36.7689 30.9408H30.3916V42.0778C30.3916 42.252 30.3163 42.4177 30.1851 42.5323C30.0538 42.6469 29.8795 42.6992 29.7068 42.6757C28.1258 42.4604 26.7563 42.5931 25.8066 43.1335C24.9099 43.6438 24.288 44.5746 24.288 46.2389C24.288 47.0777 24.4594 47.7088 24.7313 48.1835C25.0014 48.6553 25.3898 49.006 25.8797 49.2577C26.8822 49.7727 28.3087 49.8699 29.8984 49.6535C30.071 49.63 30.2454 49.6823 30.3766 49.7969C30.5079 49.9115 30.5832 50.0772 30.5832 50.2514ZM58.8318 29.734H46.0149C45.6816 29.734 45.4114 30.0041 45.4114 30.3374C45.4114 32.0634 45.3284 33.5993 44.8006 34.7025C44.5463 35.2342 44.1942 35.6504 43.7 35.9401C43.2009 36.2326 42.5131 36.4215 41.5488 36.4215C40.6206 36.4215 39.9699 36.1759 39.4994 35.8148C39.0224 35.4488 38.6835 34.9277 38.4473 34.3035C37.9665 33.0332 37.9588 31.4717 37.9837 30.3508C37.9874 30.1885 37.9254 30.0316 37.8119 29.9155C37.6984 29.7994 37.5428 29.734 37.3805 29.734H30.3916V19.2381C32.2163 19.3278 33.8319 19.2145 35.0393 18.6269C35.7334 18.2891 36.2972 17.793 36.6804 17.1C37.0594 16.4145 37.2396 15.5765 37.2396 14.5845C37.2396 13.5975 37.0706 12.7695 36.7039 12.0922C36.3323 11.4057 35.7815 10.9185 35.0985 10.5809C33.9067 9.99162 32.2765 9.8457 30.3916 9.82325V5.19644C30.7243 4.462 31.6361 3.30768 33.0611 2.42442C34.5323 1.51255 36.5151 0.912355 38.9079 1.35677C41.2971 1.80052 42.6719 2.99606 43.4313 4.30273C44.2045 5.63324 44.3592 7.11538 44.2258 8.11424C44.2028 8.28668 44.2553 8.46066 44.3699 8.59156C44.4844 8.72246 44.6499 8.79754 44.8239 8.79754C45.9235 8.79754 47.6091 8.86887 49.1798 9.37616C50.7453 9.88177 52.1176 10.7918 52.7464 12.4236C53.9853 15.6394 52.7612 17.9895 51.9879 19.4744C51.9862 19.4776 51.9845 19.4808 51.9829 19.484C51.0738 19.2284 50.2127 19.0868 49.4812 19.0354C49.1487 19.012 48.8603 19.2626 48.8369 19.595C48.8135 19.9274 49.0641 20.2159 49.3965 20.2392C50.1609 20.293 51.108 20.4601 52.1058 20.7812C53.7714 21.3173 55.5349 22.2679 56.8341 23.7864C58.0362 25.1915 58.8687 27.1143 58.8318 29.734Z" fill="#F6F6F4"/>
</svg>
