<svg width="38" height="38" viewBox="0 0 38 38" fill="none" xmlns="http://www.w3.org/2000/svg">
<path fill-rule="evenodd" clip-rule="evenodd" d="M29.3096 1.94103H8.54054C4.89573 1.94103 1.94103 4.89573 1.94103 8.54054V29.3096C1.94103 32.9544 4.89573 35.9091 8.54054 35.9091H29.3096C32.9544 35.9091 35.9091 32.9544 35.9091 29.3096V8.54054C35.9091 4.89573 32.9544 1.94103 29.3096 1.94103ZM8.54054 0C3.82373 0 0 3.82373 0 8.54054V29.3096C0 34.0264 3.82373 37.8501 8.54054 37.8501H29.3096C34.0264 37.8501 37.8501 34.0264 37.8501 29.3096V8.54054C37.8501 3.82373 34.0264 0 29.3096 0H8.54054Z" fill="#9CA1AB"/>
<path fill-rule="evenodd" clip-rule="evenodd" d="M15.6242 9.76016C16.1169 10.2529 16.1169 11.0517 15.6242 11.5444L11.4312 15.7374C11.1946 15.974 10.8737 16.1069 10.5391 16.1069C10.2045 16.1069 9.88355 15.974 9.64694 15.7374L8.17373 14.2642C7.68102 13.7715 7.68102 12.9726 8.17373 12.4799C8.66645 11.9872 9.46529 11.9872 9.95801 12.4799L10.5391 13.061L13.8399 9.76016C14.3326 9.26745 15.1315 9.26745 15.6242 9.76016Z" fill="#9CA1AB"/>
<path fill-rule="evenodd" clip-rule="evenodd" d="M15.6242 22.6791C16.1169 23.1718 16.1169 23.9707 15.6242 24.4634L11.4312 28.6564C11.1946 28.893 10.8737 29.0259 10.5391 29.0259C10.2045 29.0259 9.88355 28.893 9.64694 28.6564L8.17373 27.1831C7.68102 26.6904 7.68102 25.8916 8.17373 25.3989C8.66645 24.9062 9.46529 24.9062 9.95801 25.3989L10.5391 25.9799L13.8399 22.6791C14.3326 22.1864 15.1315 22.1864 15.6242 22.6791Z" fill="#9CA1AB"/>
<path fill-rule="evenodd" clip-rule="evenodd" d="M18.4565 13.372C18.4565 12.6752 19.0214 12.1104 19.7182 12.1104H28.4441C29.1409 12.1104 29.7058 12.6752 29.7058 13.372C29.7058 14.0688 29.1409 14.6337 28.4441 14.6337H19.7182C19.0214 14.6337 18.4565 14.0688 18.4565 13.372Z" fill="#9CA1AB"/>
<path fill-rule="evenodd" clip-rule="evenodd" d="M18.4565 26.291C18.4565 25.5942 19.0214 25.0293 19.7182 25.0293H28.4441C29.1409 25.0293 29.7058 25.5942 29.7058 26.291C29.7058 26.9878 29.1409 27.5526 28.4441 27.5526H19.7182C19.0214 27.5526 18.4565 26.9878 18.4565 26.291Z" fill="#9CA1AB"/>
</svg>
