<svg width="38" height="38" viewBox="0 0 38 38" fill="none" xmlns="http://www.w3.org/2000/svg">
<path fill-rule="evenodd" clip-rule="evenodd" d="M0 10.012C0 4.48251 4.48251 0 10.012 0H27.988C33.5175 0 38 4.48251 38 10.012V27.988C38 33.5175 33.5175 38 27.988 38H10.012C4.48251 38 0 33.5175 0 27.988V10.012ZM16.3049 9.0341C17.0602 9.78942 17.0602 11.014 16.3049 11.7694L11.7694 16.3049C11.014 17.0602 9.78942 17.0602 9.0341 16.3049L6.61185 13.8826C5.85652 13.1273 5.85652 11.9027 6.61185 11.1473C7.36718 10.392 8.5918 10.392 9.34713 11.1473L10.4017 12.2019L13.5696 9.0341C14.3249 8.27877 15.5495 8.27877 16.3049 9.0341ZM16.2894 24.3497C17.0448 23.5943 17.0448 22.3697 16.2894 21.6144C15.5341 20.8591 14.3095 20.8591 13.5542 21.6144L10.3863 24.7822L9.33171 23.7276C8.57638 22.9723 7.35176 22.9723 6.59643 23.7276C5.84111 24.483 5.84111 25.7076 6.59643 26.4629L9.01868 28.8852C9.77401 29.6405 10.9986 29.6405 11.754 28.8852L16.2894 24.3497ZM19.0793 13.3437C19.0793 12.2755 19.9452 11.4095 21.0134 11.4095H30.4521C31.5203 11.4095 32.3862 12.2755 32.3862 13.3437C32.3862 14.4119 31.5203 15.2778 30.4521 15.2778H21.0134C19.9452 15.2778 19.0793 14.4119 19.0793 13.3437ZM20.998 23.9898C19.9298 23.9898 19.0639 24.8558 19.0639 25.924C19.0639 26.9922 19.9298 27.8581 20.998 27.8581H30.4367C31.5049 27.8581 32.3708 26.9922 32.3708 25.924C32.3708 24.8558 31.5049 23.9898 30.4367 23.9898H20.998Z" fill="#E84855"/>
</svg>
